<?xml version="1.0" encoding="utf-8"?>
<?xml-stylesheet type="text/xsl" href="rss1.xsl"?>
<rss version="2.0" xmlns:atom="http://www.w3.org/2005/Atom" xmlns:content="http://purl.org/rss/1.0/modules/content/" xmlns:dc="http://purl.org/dc/elements/1.1/" xmlns:media="http://search.yahoo.com/mrss/">
<channel>
 <title>Getty</title>
 <link>http://www.gettyimg.com/</link>
 <atom:link href="http://www.gettyimg.com/" rel="self" type="application/rss+xml" />

 
                <item>
                <title><![CDATA[【Bugs!】Secret Number - Starlight [Bugs! 4K] (H.264/MP4)]]></title>
                <link><![CDATA[https://sharemania.us/threads/secret-number-starlight-bugs-4k-h-264-mp4.226900/]]></link>
                <description><![CDATA[<article>
<blockquote class="messageText SelectQuoteContainer ugc baseHtml">
<b>ALL CREDITS &amp; PURCHASE BY <a href="https://sharemania.us/members/148511/" class="username" data-user="148511, @Kim Min Jeong">@Kim Min Jeong</a> </b><br>
<br>
<img src="https://i.imgur.com/56G4hiA.jpg" class="bbCodeImage LbImage" alt="[​IMG]" data-url="https://i.imgur.com/56G4hiA.jpg" style=""><br>
<br>
<br>
<div class="bbCodeBlock bbCodeVfcHH HiddenContent">
<div class="attribution type">Hidden Content:</div>
<blockquote>You must reply before you can see the hidden data contained here.</blockquote>
</div>
<div class="messageTextEndMarker">&nbsp;</div>
</blockquote>
</article>]]></description>
                <author><![CDATA[Kim Min Jeong]]></author>
                </item>

                
                <item>
                <title><![CDATA[【Bugs!】Secret Number - DOXA [Bugs! 4K] (H.264/MP4)]]></title>
                <link><![CDATA[https://sharemania.us/threads/secret-number-doxa-bugs-4k-h-264-mp4.226899/]]></link>
                <description><![CDATA[<article>
<blockquote class="messageText SelectQuoteContainer ugc baseHtml">
<b>ALL CREDITS &amp; PURCHASE BY <a href="https://sharemania.us/members/148511/" class="username" data-user="148511, @Kim Min Jeong">@Kim Min Jeong</a> </b><br>
<br>
<img src="https://i.imgur.com/YurQmRD.jpg" class="bbCodeImage LbImage" alt="[​IMG]" data-url="https://i.imgur.com/YurQmRD.jpg" style=""> <br>
<br>
<div class="bbCodeBlock bbCodeVfcHH HiddenContent">
<div class="attribution type">Hidden Content:</div>
<blockquote>You must reply before you can see the hidden data contained here.</blockquote>
</div>
<div class="messageTextEndMarker">&nbsp;</div>
</blockquote>
</article>]]></description>
                <author><![CDATA[Kim Min Jeong]]></author>
                </item>

                
                <item>
                <title><![CDATA[【Requests】[REQ AUD] - Holiday87, The Knocks - Break (feat. Minke) 24bit FLAC]]></title>
                <link><![CDATA[https://sharemania.us/threads/holiday87-the-knocks-break-feat-minke-24bit-flac.226896/]]></link>
                <description><![CDATA[<article>
<blockquote class="messageText SelectQuoteContainer ugc baseHtml">
Hi there,<br>
<br>
Please can I request this fresh new song in Hi-Res FLAC?<br>
<br>
<a href="https://www.qobuz.com/gb-en/album/break-feat-minke-holiday87-minke-and-the-knocks/imf8ib247rkoa" target="_blank" class="externalLink" rel="nofollow">Break (feat. Minke), Holiday87 - Qobuz</a><br>
<br>
Many thanks
<div class="messageTextEndMarker">&nbsp;</div>
</blockquote>
</article>]]></description>
                <author><![CDATA[faceoffaith]]></author>
                </item>

                
                <item>
                <title><![CDATA[【Bugs!】Misamo (Twice) - Dont Not Touch [Bugs! 4K] (H.264/MP4)]]></title>
                <link><![CDATA[https://sharemania.us/threads/misamo-twice-dont-not-touch-bugs-4k-h-264-mp4.226901/]]></link>
                <description><![CDATA[<article>
<blockquote class="messageText SelectQuoteContainer ugc baseHtml">
<b>ALL CREDITS &amp; PURCHASE BY <a href="https://sharemania.us/members/148511/" class="username" data-user="148511, @Kim Min Jeong">@Kim Min Jeong</a> </b><br>
<br>
<img src="https://i.imgur.com/m8Eq8Q1.jpg" class="bbCodeImage LbImage" alt="[​IMG]" data-url="https://i.imgur.com/m8Eq8Q1.jpg" style=""> <br>
<br>
<img src="https://i.imgur.com/yIUsQPl.jpg" class="bbCodeImage LbImage" alt="[​IMG]" data-url="https://i.imgur.com/yIUsQPl.jpg" style=""> <br>
<br>
<div class="bbCodeBlock bbCodeVfcHH HiddenContent">
<div class="attribution type">Hidden Content:</div>
<blockquote>You must reply before you can see the hidden data contained here.</blockquote>
</div>
<div class="messageTextEndMarker">&nbsp;</div>
</blockquote>
</article>]]></description>
                <author><![CDATA[Kim Min Jeong]]></author>
                </item>

                
                <item>
                <title><![CDATA[【HD Live Performances】FEED - Marshmello ft. Anne-Marie &amp; Bastille - Friends, Happier - MTV Europe Music Awards Bilbao 2018 Red Carpet &amp; Main Show FEED 1080i 45]]></title>
                <link><![CDATA[https://sharemania.us/threads/marshmello-ft-anne-marie-bastille-friends-happier-mtv-europe-music-awards-bilbao-2018-red-carpet-main-show-feed-1080i-45.226898/]]></link>
                <description><![CDATA[<article>
<blockquote class="messageText SelectQuoteContainer ugc baseHtml">
Credit: <b><a href="https://sharemania.us/members/gnuhd.11239/" class="internalLink">GnuHD</a> </b>(<a href="https://sharemania.us/threads/mtv-europe-music-awards-bilbao-2018-red-carpet-main-show-feed-1080i-45mbps-mpa2-0-h-264-hdctv.79888/" class="internalLink">https://sharemania.us/threads/mtv-e...w-feed-1080i-45mbps-mpa2-0-h-264-hdctv.79888/</a>)<br>
<br>
<img src="https://i.imgur.com/IAJff0A.png" class="bbCodeImage LbImage" alt="[​IMG]" data-url="https://i.imgur.com/IAJff0A.png" style=""> <br>
<br>
<img src="https://i.imgur.com/Cz77jAE.png" class="bbCodeImage LbImage" alt="[​IMG]" data-url="https://i.imgur.com/Cz77jAE.png" style=""> <br>
<br>
<div class="bbCodeBlock bbCodeVfcHH HiddenContent">
<div class="attribution type">Hidden Content:</div>
<blockquote>You must reply before you can see the hidden data contained here.</blockquote>
</div>
<div class="messageTextEndMarker">&nbsp;</div>
</blockquote>
</article>]]></description>
                <author><![CDATA[dxd1412]]></author>
                </item>

                
                <item>
                <title><![CDATA[【HD Live Performances】WEB-RiP - Miley Cyrus Walt Disney World Christmas Day Parade performances 2006 / 2007 / 2008]]></title>
                <link><![CDATA[https://sharemania.us/threads/miley-cyrus-walt-disney-world-christmas-day-parade-performances-2006-2007-2008.226897/]]></link>
                <description><![CDATA[<article>
<blockquote class="messageText SelectQuoteContainer ugc baseHtml">
Downloaded from YouTube channel Sam's Disney Diary, split by me.<br>
<br>
<div class="bbCodeBlock bbCodeCode">
<div class="type">Code:</div>
<pre>General
Unique ID                      : 332294683449629547253036010124474925473 (0xF9FDA0CC944AFF08F368D13FD05941A1)
Complete name                  : C:\Users\Tower\Desktop\【Walt Disney World Christmas Day Parade 2006】Rockin' Around the Christmas Tree.mkv
Format                         : Matroska
Format version                 : Version 4
File size                      : 184 MiB
Duration                       : 2 min 51 s
Overall bit rate mode          : Variable
Overall bit rate               : 8 993 kb/s
Movie name                     : 2006 Walt Disney World Christmas Day Parade | Regis Philbin | Kelly Ripa | Ryan Seacrest | Beyonce
Released date                  : 2019
Encoded date                   : UTC 2023-08-23 09:56:23
Writing application            : mkvmerge v76.0 ('Celebration') 64-bit
Writing library                : libebml v1.4.4 + libmatroska v1.7.1 / Lavf59.27.100
ARTIST                         : Sam's Disney Diary
SUMMARY                        : https://www.youtube.com/watch?v=GnGJ-v14yg0

Video
ID                             : 1
Format                         : AVC
Format/Info                    : Advanced Video Codec
Format profile                 : Main@L3.2
Format settings                : CABAC / 4 Ref Frames
Format settings, CABAC         : Yes
Format settings, Reference fra : 4 frames
Codec ID                       : V_MPEG4/ISO/AVC
Duration                       : 2 min 51 s
Bit rate mode                  : Variable
Bit rate                       : 8 861 kb/s
Maximum bit rate               : 16.0 Mb/s
Width                          : 960 pixels
Height                         : 720 pixels
Display aspect ratio           : 4:3
Frame rate mode                : Constant
Frame rate                     : 60.000 FPS
Color space                    : YUV
Chroma subsampling             : 4:2:0
Bit depth                      : 8 bits
Scan type                      : Progressive
Bits/(Pixel*Frame)             : 0.214
Stream size                    : 181 MiB (99%)
Default                        : Yes
Forced                         : No
Color range                    : Limited
Color primaries                : BT.709
Transfer characteristics       : BT.709
Matrix coefficients            : BT.709

Audio
ID                             : 2
Format                         : AAC LC
Format/Info                    : Advanced Audio Codec Low Complexity
Codec ID                       : A_AAC-2
Duration                       : 2 min 51 s
Bit rate                       : 128 kb/s
Channel(s)                     : 2 channels
Channel layout                 : L R
Sampling rate                  : 44.1 kHz
Frame rate                     : 43.066 FPS (1024 SPF)
Compression mode               : Lossy
Delay relative to video        : 1 ms
Stream size                    : 2.62 MiB (1%)
Title                          : Stereo
Language                       : English
Default                        : Yes
Forced                         : No

General
Unique ID                      : 282699145507361729976593372743847699886 (0xD4ADDFFD4844FA39364CFC16C450E5AE)
Complete name                  : C:\Users\Tower\Desktop\【Walt Disney World Christmas Day Parade 2007】All I Want for Christmas Is You.mkv
Format                         : Matroska
Format version                 : Version 4
File size                      : 715 MiB
Duration                       : 3 min 51 s
Overall bit rate mode          : Variable
Overall bit rate               : 25.9 Mb/s
Movie name                     : 2007 Walt Disney World Christmas Day Parade | Regis Philbin | Kelly Ripa | Ryan Seacrest
Released date                  : 2019
Encoded date                   : UTC 2023-08-23 12:14:20
Writing application            : mkvmerge v76.0 ('Celebration') 64-bit
Writing library                : libebml v1.4.4 + libmatroska v1.7.1 / Lavf59.27.100
ARTIST                         : Sam's Disney Diary
SUMMARY                        : https://www.youtube.com/watch?v=b-yNFMnKDOw

Video
ID                             : 1
Format                         : AVC
Format/Info                    : Advanced Video Codec
Format profile                 : Main@L4.2
Format settings                : CABAC / 4 Ref Frames
Format settings, CABAC         : Yes
Format settings, Reference fra : 4 frames
Codec ID                       : V_MPEG4/ISO/AVC
Duration                       : 3 min 51 s
Bit rate mode                  : Variable
Bit rate                       : 25.7 Mb/s
Maximum bit rate               : 40.0 Mb/s
Width                          : 1 920 pixels
Height                         : 1 080 pixels
Display aspect ratio           : 16:9
Frame rate mode                : Constant
Frame rate                     : 60.000 FPS
Color space                    : YUV
Chroma subsampling             : 4:2:0
Bit depth                      : 8 bits
Scan type                      : Progressive
Bits/(Pixel*Frame)             : 0.207
Stream size                    : 711 MiB (99%)
Default                        : Yes
Forced                         : No
Color range                    : Limited
Color primaries                : BT.709
Transfer characteristics       : BT.709
Matrix coefficients            : BT.709

Audio
ID                             : 2
Format                         : AAC LC
Format/Info                    : Advanced Audio Codec Low Complexity
Codec ID                       : A_AAC-2
Duration                       : 3 min 51 s
Bit rate                       : 128 kb/s
Channel(s)                     : 2 channels
Channel layout                 : L R
Sampling rate                  : 44.1 kHz
Frame rate                     : 43.066 FPS (1024 SPF)
Compression mode               : Lossy
Delay relative to video        : 7 ms
Stream size                    : 3.54 MiB (0%)
Title                          : Stereo
Language                       : English
Default                        : Yes
Forced                         : No

General
Unique ID                      : 286521045510119244027694783774959155826 (0xD78DF235373A5B27459DCCE7A5313A72)
Complete name                  : C:\Users\Tower\Desktop\【Walt Disney World Christmas Day Parade 2008】Santa Claus Is Comin' to Town.mkv
Format                         : Matroska
Format version                 : Version 4
File size                      : 562 MiB
Duration                       : 2 min 51 s
Overall bit rate mode          : Variable
Overall bit rate               : 27.5 Mb/s
Movie name                     : 2008 Walt Disney World Christmas Day Parade | Regis Philbin | Kelly Ripa | Miley Cyrus | Seacrest
Released date                  : 2019
Encoded date                   : UTC 2023-08-23 14:07:15
Writing application            : mkvmerge v76.0 ('Celebration') 64-bit
Writing library                : libebml v1.4.4 + libmatroska v1.7.1 / Lavf59.27.100
ARTIST                         : Sam's Disney Diary
SUMMARY                        : https://www.youtube.com/watch?v=wHMFkD7d8-k

Video
ID                             : 1
Format                         : AVC
Format/Info                    : Advanced Video Codec
Format profile                 : Main@L4.2
Format settings                : CABAC / 4 Ref Frames
Format settings, CABAC         : Yes
Format settings, Reference fra : 4 frames
Codec ID                       : V_MPEG4/ISO/AVC
Duration                       : 2 min 51 s
Bit rate mode                  : Variable
Bit rate                       : 27.4 Mb/s
Maximum bit rate               : 40.0 Mb/s
Width                          : 1 920 pixels
Height                         : 1 080 pixels
Display aspect ratio           : 16:9
Frame rate mode                : Constant
Frame rate                     : 60.000 FPS
Color space                    : YUV
Chroma subsampling             : 4:2:0
Bit depth                      : 8 bits
Scan type                      : Progressive
Bits/(Pixel*Frame)             : 0.220
Stream size                    : 559 MiB (100%)
Default                        : Yes
Forced                         : No
Color range                    : Limited
Color primaries                : BT.709
Transfer characteristics       : BT.709
Matrix coefficients            : BT.709

Audio
ID                             : 2
Format                         : AAC LC
Format/Info                    : Advanced Audio Codec Low Complexity
Codec ID                       : A_AAC-2
Duration                       : 2 min 51 s
Bit rate                       : 128 kb/s
Channel(s)                     : 2 channels
Channel layout                 : L R
Sampling rate                  : 44.1 kHz
Frame rate                     : 43.066 FPS (1024 SPF)
Compression mode               : Lossy
Delay relative to video        : 18 ms
Stream size                    : 2.62 MiB (0%)
Title                          : Stereo
Language                       : English
Default                        : Yes
Forced                         : No

</pre>
</div><br>
<div class="bbCodeBlock bbCodeVfcHH HiddenContent">
<div class="attribution type">Hidden Content:</div>
<blockquote>You must reply before you can see the hidden data contained here.</blockquote>
</div>
<div class="messageTextEndMarker">&nbsp;</div>
</blockquote>
</article>]]></description>
                <author><![CDATA[Osment]]></author>
                </item>

                
                <item>
                <title><![CDATA[【Bugs!】Jo Yuri -  Taxi [Bugs! 4K] (H.264/MP4)]]></title>
                <link><![CDATA[https://sharemania.us/threads/jo-yuri-taxi-bugs-4k-h-264-mp4.226902/]]></link>
                <description><![CDATA[<article>
<blockquote class="messageText SelectQuoteContainer ugc baseHtml">
<b>ALL CREDITS &amp; PURCHASE BY <a href="https://sharemania.us/members/148511/" class="username" data-user="148511, @Kim Min Jeong">@Kim Min Jeong</a> </b><br>
<br>
<img src="https://i.imgur.com/ZCI9tWd.jpg" class="bbCodeImage LbImage" alt="[​IMG]" data-url="https://i.imgur.com/ZCI9tWd.jpg" style=""> <br>
<br>
<div class="bbCodeBlock bbCodeVfcHH HiddenContent">
<div class="attribution type">Hidden Content:</div>
<blockquote>You must reply before you can see the hidden data contained here.</blockquote>
</div>
<div class="messageTextEndMarker">&nbsp;</div>
</blockquote>
</article>]]></description>
                <author><![CDATA[Kim Min Jeong]]></author>
                </item>

                </channel></rss>